<svg width="86" height="22" viewBox="0 0 86 22" fill="none" xmlns="http://www.w3.org/2000/svg">
<path d="M5.016 17.264C4.20933 17.264 3.498 17.1247 2.882 16.846C2.28067 16.5527 1.81133 16.1567 1.474 15.658C1.13667 15.1447 0.968 14.5433 0.968 13.854C0.968 13.2087 1.10733 12.6293 1.386 12.116C1.67933 11.6027 2.12667 11.17 2.728 10.818C3.32933 10.466 4.08467 10.2167 4.994 10.07L9.13 9.388V11.346L5.478 11.984C4.818 12.1013 4.334 12.314 4.026 12.622C3.718 12.9153 3.564 13.2967 3.564 13.766C3.564 14.2207 3.73267 14.5947 4.07 14.888C4.422 15.1667 4.86933 15.306 5.412 15.306C6.08667 15.306 6.67333 15.1593 7.172 14.866C7.68533 14.5727 8.08133 14.184 8.36 13.7C8.63867 13.2013 8.778 12.6513 8.778 12.05V8.992C8.778 8.40533 8.558 7.92867 8.118 7.562C7.69267 7.18067 7.12067 6.99 6.402 6.99C5.742 6.99 5.16267 7.166 4.664 7.518C4.18 7.85533 3.82067 8.29533 3.586 8.838L1.518 7.804C1.738 7.21733 2.09733 6.704 2.596 6.264C3.09467 5.80933 3.674 5.45733 4.334 5.208C5.00867 4.95867 5.72 4.834 6.468 4.834C7.40667 4.834 8.23533 5.01 8.954 5.362C9.68733 5.714 10.252 6.20533 10.648 6.836C11.0587 7.452 11.264 8.17067 11.264 8.992V17H8.888V14.844L9.394 14.91C9.11533 15.394 8.756 15.812 8.316 16.164C7.89067 16.516 7.39933 16.7873 6.842 16.978C6.29933 17.1687 5.69067 17.264 5.016 17.264ZM14.1707 17V5.098H16.5468V7.43L16.2608 7.122C16.5541 6.374 17.0234 5.80933 17.6688 5.428C18.3141 5.032 19.0621 4.834 19.9128 4.834C20.7928 4.834 21.5701 5.02467 22.2448 5.406C22.9194 5.78733 23.4474 6.31533 23.8287 6.99C24.2101 7.66467 24.4008 8.442 24.4008 9.322V17H21.9368V9.982C21.9368 9.38067 21.8268 8.87467 21.6068 8.464C21.3868 8.03867 21.0714 7.716 20.6608 7.496C20.2648 7.26133 19.8101 7.144 19.2968 7.144C18.7834 7.144 18.3214 7.26133 17.9108 7.496C17.5148 7.716 17.2068 8.03867 16.9868 8.464C16.7668 8.88933 16.6568 9.39533 16.6568 9.982V17H14.1707ZM30.6254 17.264C29.8187 17.264 29.1074 17.1247 28.4914 16.846C27.89 16.5527 27.4207 16.1567 27.0834 15.658C26.746 15.1447 26.5774 14.5433 26.5774 13.854C26.5774 13.2087 26.7167 12.6293 26.9954 12.116C27.2887 11.6027 27.736 11.17 28.3374 10.818C28.9387 10.466 29.694 10.2167 30.6034 10.07L34.7394 9.388V11.346L31.0874 11.984C30.4274 12.1013 29.9434 12.314 29.6354 12.622C29.3274 12.9153 29.1734 13.2967 29.1734 13.766C29.1734 14.2207 29.342 14.5947 29.6794 14.888C30.0314 15.1667 30.4787 15.306 31.0214 15.306C31.696 15.306 32.2827 15.1593 32.7814 14.866C33.2947 14.5727 33.6907 14.184 33.9694 13.7C34.248 13.2013 34.3874 12.6513 34.3874 12.05V8.992C34.3874 8.40533 34.1674 7.92867 33.7274 7.562C33.302 7.18067 32.73 6.99 32.0114 6.99C31.3514 6.99 30.772 7.166 30.2734 7.518C29.7894 7.85533 29.43 8.29533 29.1954 8.838L27.1274 7.804C27.3474 7.21733 27.7067 6.704 28.2054 6.264C28.704 5.80933 29.2834 5.45733 29.9434 5.208C30.618 4.95867 31.3294 4.834 32.0774 4.834C33.016 4.834 33.8447 5.01 34.5634 5.362C35.2967 5.714 35.8614 6.20533 36.2574 6.836C36.668 7.452 36.8734 8.17067 36.8734 8.992V17H34.4974V14.844L35.0034 14.91C34.7247 15.394 34.3654 15.812 33.9254 16.164C33.5 16.516 33.0087 16.7873 32.4514 16.978C31.9087 17.1687 31.3 17.264 30.6254 17.264ZM39.7801 17V0.345999H42.2661V17H39.7801ZM46.2287 21.862C45.9354 21.862 45.642 21.8327 45.3487 21.774C45.07 21.73 44.8134 21.6567 44.5787 21.554V19.42C44.7547 19.464 44.9674 19.5007 45.2167 19.53C45.466 19.574 45.708 19.596 45.9427 19.596C46.632 19.596 47.138 19.442 47.4607 19.134C47.798 18.8407 48.0987 18.3787 48.3627 17.748L49.1547 15.944L49.1107 18.034L43.9627 5.098H46.6247L50.4307 15.02H49.5287L53.3127 5.098H55.9967L50.7387 18.298C50.46 19.002 50.108 19.618 49.6827 20.146C49.272 20.6887 48.7807 21.1067 48.2087 21.4C47.6514 21.708 46.9914 21.862 46.2287 21.862ZM56.6201 17V14.954L63.6161 6.484L64.0121 7.342H56.9501V5.098H66.2121V7.122L59.3041 15.614L58.9081 14.734H66.2341V17H56.6201ZM73.6416 17.264C72.4536 17.264 71.3976 16.9927 70.4736 16.45C69.5642 15.8927 68.8529 15.1447 68.3396 14.206C67.8262 13.2527 67.5696 12.1893 67.5696 11.016C67.5696 9.81333 67.8262 8.75 68.3396 7.826C68.8676 6.902 69.5716 6.176 70.4516 5.648C71.3316 5.10533 72.3289 4.834 73.4436 4.834C74.3382 4.834 75.1376 4.988 75.8416 5.296C76.5456 5.604 77.1396 6.02933 77.6236 6.572C78.1076 7.1 78.4742 7.70867 78.7236 8.398C78.9876 9.08733 79.1196 9.82067 79.1196 10.598C79.1196 10.7887 79.1122 10.9867 79.0976 11.192C79.0829 11.3973 79.0536 11.588 79.0096 11.764H69.5276V9.784H77.6016L76.4136 10.686C76.5602 9.96733 76.5089 9.32933 76.2596 8.772C76.0249 8.2 75.6582 7.75267 75.1596 7.43C74.6756 7.09267 74.1036 6.924 73.4436 6.924C72.7836 6.924 72.1969 7.09267 71.6836 7.43C71.1702 7.75267 70.7742 8.222 70.4956 8.838C70.2169 9.43933 70.1069 10.1727 70.1656 11.038C70.0922 11.8447 70.2022 12.5487 70.4956 13.15C70.8036 13.7513 71.2289 14.2207 71.7716 14.558C72.3289 14.8953 72.9596 15.064 73.6636 15.064C74.3822 15.064 74.9909 14.9027 75.4896 14.58C76.0029 14.2573 76.4062 13.8393 76.6996 13.326L78.7236 14.316C78.4889 14.8733 78.1222 15.3793 77.6236 15.834C77.1396 16.274 76.5529 16.626 75.8636 16.89C75.1889 17.1393 74.4482 17.264 73.6416 17.264ZM82.6458 17V14.14H85.1758V17H82.6458Z" fill="#130F26"/>
</svg>
