<svg width="47" height="45" viewBox="0 0 47 45" fill="none" xmlns="http://www.w3.org/2000/svg">
<g clip-path="url(#clip0_21_31)">
<path d="M36.4704 14.2306C36.1573 13.9429 35.7181 13.8122 35.2883 13.879C34.8577 13.9456 34.4858 14.2013 34.2861 14.5682C33.599 15.8304 32.7264 16.9903 31.6998 18.0157C31.8021 17.275 31.8536 16.5299 31.8536 15.7827C31.8536 14.3491 31.6505 12.8739 31.2496 11.3974C29.9316 6.54784 26.4754 2.4466 21.7676 0.145382C21.3577 -0.0549006 20.8694 -0.0478685 20.4661 0.164134C20.0629 0.376224 19.7988 0.76507 19.7626 1.20001C19.3956 5.60711 16.9953 9.61658 13.1735 12.203C13.1229 12.2375 13.0727 12.2724 13.0225 12.3071C12.9185 12.379 12.8205 12.4471 12.7288 12.5042C12.7145 12.5133 12.7003 12.5225 12.6863 12.5319C10.2827 14.1595 8.29946 16.329 6.95068 18.8066C5.58016 21.3268 4.88525 24.0311 4.88525 26.8444C4.88525 28.2775 5.0884 29.7528 5.48909 31.2295C7.60363 39.0131 15.0102 44.4493 23.5005 44.4493C33.7644 44.4493 42.1146 36.5517 42.1146 26.8444C42.1146 22.0574 40.1101 17.5777 36.4704 14.2306Z" fill="#5534A5"/>
<ellipse cx="22.7878" cy="26.9391" rx="5.69697" ry="5.38781" fill="#F8F8F8"/>
</g>
<defs>
<clipPath id="clip0_21_31">
<rect width="47" height="44.4494" fill="white"/>
</clipPath>
</defs>
</svg>
