<?xml version="1.0" standalone="no"?>
<!DOCTYPE svg PUBLIC "-//W3C//DTD SVG 20010904//EN"
 "http://www.w3.org/TR/2001/REC-SVG-20010904/DTD/svg10.dtd">
<svg version="1.0" xmlns="http://www.w3.org/2000/svg"
 width="752.000000pt" height="752.000000pt" viewBox="0 0 752.000000 752.000000"
 preserveAspectRatio="xMidYMid meet">
<metadata>
Created by potrace 1.14, written by Peter Selinger 2001-2017
</metadata>
<g transform="translate(0.000000,752.000000) scale(0.100000,-0.100000)"
fill="#000000" stroke="none">
<path d="M3321 7353 c-75 -15 -160 -119 -159 -193 0 -8 -2 -28 -5 -45 -3 -16
-9 -57 -13 -90 -9 -67 -11 -78 -14 -85 -1 -3 -3 -16 -5 -30 -2 -14 -15 -70
-30 -125 -14 -55 -28 -107 -30 -115 -2 -8 -15 -43 -29 -78 -13 -34 -25 -65
-26 -67 -6 -34 -125 -278 -166 -343 -19 -29 -34 -56 -34 -61 0 -5 -3 -11 -8
-13 -4 -1 -27 -32 -51 -68 -130 -192 -350 -419 -536 -554 -38 -28 -72 -53 -75
-56 -3 -3 -41 -29 -85 -59 -86 -59 -221 -159 -269 -200 -328 -283 -557 -576
-729 -932 -57 -118 -115 -253 -122 -284 -1 -5 -8 -23 -14 -40 -7 -16 -14 -39
-17 -49 -2 -10 -8 -33 -13 -50 -24 -73 -53 -197 -67 -281 -1 -5 -3 -12 -4 -15
-1 -3 -3 -16 -5 -30 -1 -14 -5 -41 -8 -60 -21 -128 -29 -448 -13 -600 12 -121
14 -145 16 -145 1 0 3 -9 4 -20 4 -29 18 -107 23 -130 6 -26 20 -84 26 -110
48 -200 131 -419 229 -605 33 -63 69 -127 79 -142 11 -14 19 -30 19 -36 0 -5
7 -15 15 -22 9 -7 23 -28 31 -46 9 -19 20 -34 25 -34 5 0 9 -5 9 -11 0 -8 100
-146 135 -186 5 -6 28 -33 50 -59 47 -57 233 -243 296 -297 116 -100 178 -146
314 -236 112 -74 363 -207 500 -266 75 -32 230 -87 296 -105 37 -9 71 -20 76
-23 5 -3 25 -9 44 -12 19 -3 61 -12 94 -20 73 -17 123 -27 150 -30 31 -4 98
-15 125 -20 104 -20 581 -28 720 -12 152 18 191 23 226 31 12 2 38 7 59 10 20
4 40 8 44 10 3 2 24 7 46 10 22 4 58 12 80 18 22 6 46 13 53 14 43 8 235 73
341 115 129 52 352 161 415 204 20 14 39 25 42 25 13 0 251 169 338 240 98 81
277 256 361 354 151 179 322 439 390 596 11 25 22 47 25 50 3 3 28 61 54 130
27 69 53 136 59 150 5 14 11 32 13 40 1 8 13 53 26 100 14 47 25 88 26 93 1 4
2 8 3 10 3 11 29 147 36 192 4 22 7 55 7 72 1 18 3 33 6 33 14 0 19 397 7 535
-21 248 -92 559 -166 730 -5 11 -24 56 -42 100 -31 75 -70 154 -133 270 -39
73 -188 295 -198 295 -4 0 -8 7 -8 15 0 9 -7 18 -15 21 -8 4 -15 11 -15 16 0
5 -12 22 -27 38 -16 16 -39 43 -53 61 -57 75 -254 262 -294 280 -84 37 -180
21 -245 -40 -21 -20 -41 -43 -45 -51 -3 -8 -18 -33 -31 -55 -14 -22 -28 -48
-32 -57 -3 -10 -9 -18 -13 -18 -4 0 -12 -11 -18 -25 -7 -14 -16 -31 -22 -38
-6 -7 -32 -42 -58 -78 -88 -122 -249 -301 -238 -264 11 38 19 180 19 330 1
189 -9 301 -38 460 -9 50 -18 99 -20 110 -13 71 -74 283 -102 355 -4 8 -7 17
-8 20 -4 11 -19 47 -36 89 -11 24 -19 50 -19 57 0 8 -3 14 -8 14 -4 0 -13 15
-20 33 -23 54 -55 119 -86 172 -27 48 -48 83 -78 136 -7 13 -15 26 -18 29 -3
3 -30 41 -60 85 -30 44 -58 84 -62 90 -5 5 -18 21 -29 35 -11 14 -33 40 -47
59 -59 74 -204 225 -301 311 -92 82 -85 76 -161 135 -36 27 -66 53 -68 57 -2
5 -8 8 -12 8 -5 0 -35 18 -67 41 -76 53 -250 156 -337 199 -68 33 -138 45
-195 33z"/>
</g>
</svg>
